<svg xmlns="http://www.w3.org/2000/svg" viewBox="0 0 300 39.1821"><title>ProPublica</title><path d="M34.6869,7.0435l-.2123.7435,3.2563,5.9817.6018.2477.8494-.2833v25.449H26.617a21.5242,21.5242,0,0,0,5.84-14.6887,21.2134,21.2134,0,0,0-1.77-8.495,23.6023,23.6023,0,0,1,4.0705-2.5837l.8848-.1063.0709-.2122L33.9792,9.84h-.2833l-.46.6724a20.0882,20.0882,0,0,1-4.46,1.9824A21.6019,21.6019,0,0,0,10.6892,2.8318,20.8305,20.8305,0,0,0,0,5.6987V0H39.1821V4.6013ZM29.944,24.5286a19.61,19.61,0,0,1-6.6188,14.6535H0V8.3532A19.3175,19.3175,0,0,1,29.944,24.5286ZM22.83,19.3611c0-4.2473-3.1149-6.2649-9.2737-6.2649H3.7517v1.9113l2.1946.4955v16.99l-2.1946.4954v1.9468H14.5473V32.988l-3.7519-.4954v-6.3h2.69C19.4672,26.1922,22.83,23.7854,22.83,19.3611Zm-5.0969.1415c0,2.69-1.4513,4.3535-3.7874,4.3535h-3.15V15.3967h3.2917C16.3877,15.3967,17.7329,16.8833,17.7329,19.5026Z"/><path d="M60.8781,31.3823l4.7785.5662V34.143H51.9233V31.9485l2.7607-.708V8.2693l-2.7607-.7079V5.4376H64.2761c7.9993,0,11.9636,2.761,11.9636,8.4242,0,5.84-4.3536,9.0963-12.07,9.0963H60.8781Zm0-11.0434H64.453c3.3626,0,5.4863-2.4068,5.4863-6.3,0-3.7519-1.9467-5.982-5.2739-5.982H60.8781Z"/><path d="M104.8731,31.9485V34.143H97.1216l-8.3531-10.76h-1.31v7.8574l2.7607.708V34.143H78.5038V31.9485l2.7609-.708V12.1982L78.6454,11.49V9.3664H91.5292c5.4862,0,9.1673,2.6548,9.1673,6.6189,0,4.3891-3.0086,6.3711-5.7339,7.0791l7.0435,8.2469ZM87.4588,20.7639h2.336c3.0086,0,4.6013-1.6636,4.6013-4.6368,0-2.7963-1.4864-4.1414-4.6013-4.1414h-2.336Z"/><path d="M104.2706,21.7547c0-7.7159,5.1324-12.9192,13.4147-12.9192S131.1,14.0388,131.1,21.7547c0,7.7515-5.1323,12.9193-13.4147,12.9193S104.2706,29.5062,104.2706,21.7547Zm20.3168,0c0-5.0615-1.699-10.0167-6.9021-10.0167s-6.9019,4.9552-6.9019,10.0167,1.6989,10.0168,6.9019,10.0168S124.5874,26.8162,124.5874,21.7547Z"/><path d="M141.47,31.3823l4.7783.5662V34.143h-13.91V31.9485l2.9379-.708V8.2693l-2.9379-.7079V5.4376h12.53c7.9992,0,11.9632,2.761,11.9632,8.4242,0,5.84-4.3535,9.0963-12.07,9.0963H141.47Zm0-11.0434h3.5749c3.3624,0,5.4863-2.4068,5.4863-6.3,0-3.7519-1.9469-5.982-5.2741-5.982H141.47Z"/><path d="M185.076,11.49l-2.5837.7079V24.551c0,6.7251-4.0706,10.123-10.477,10.123-7.1142,0-10.8309-4.1059-10.8309-10.4415V12.1982l-2.5838-.7079V9.3664H170.104V11.49l-2.6548.7079V24.9405c0,3.787,2.2653,6.3,5.982,6.3a5.5276,5.5276,0,0,0,5.8754-5.9109V12.1982l-2.6545-.7079V9.3664h8.4239Z"/><path d="M210.9843,27.2765c0,4.6368-3.7163,6.8665-11.5034,6.8665H186.81V31.9485l2.9025-.708V12.1982l-2.5485-.7079V9.3664h12.4942c6.5837,0,10.1938,1.9824,10.1938,6.1235,0,3.2209-2.1235,4.743-5.6984,5.1677v.1415C208.6131,21.2945,210.9843,23.56,210.9843,27.2765ZM195.906,20.02h3.0088c3.1854,0,4.7075-1.4511,4.7075-4.07,0-2.7255-1.628-3.9644-4.7075-3.9644H195.906Zm8.7782,7.0084c0-2.9381-1.9823-4.5306-5.8757-4.5306H195.906v9.0256h3.469C202.7374,31.5238,204.6842,29.9309,204.6842,27.0288Z"/><path d="M235.654,25.4l-2.3008,8.7426h-20.21V31.9485l2.761-.708V12.1982l-2.938-.7079V9.3664h11.8929V11.49l-2.7607.7079V31.5238l7.3975-.4247,4.0348-6.4067Z"/><path d="M248.36,31.9485V34.143H236.6446V31.9485l2.7607-.708V12.1982l-2.7607-.7079V9.3664H248.36V11.49l-2.7607.7079V31.2405Z"/><path d="M249.74,21.8255c0-8.2825,6.336-12.99,14.1227-12.99a18.6,18.6,0,0,1,9.5568,2.69l-1.0619,6.9017h-2.1945l-.885-4.7427a6.9115,6.9115,0,0,0-5.2737-2.159c-4.7782,0-7.6807,3.4331-7.6807,9.521,0,6.9021,3.5749,10.0878,7.9637,10.0878,3.2209,0,5.3447-1.77,7.0083-4.9908l2.23,1.0264c-2.23,5.203-6.0878,7.5038-11.0076,7.5038C255.1553,34.674,249.74,29.5062,249.74,21.8255Z"/><path d="M300,31.9485V34.143H288.1071V31.9485l2.9025-.6017L289.523,27.1h-8.6716l-1.6284,4.2828,2.8318.6017-.0356,2.1946-8.6364-.0356V31.9485l2.23-.5662L283.4,11.88l-2.0883-.6727V9.3664h7.15l8.9549,21.98ZM285.5941,15.7376l-.2477-.8139-.2477.8139L281.8423,24.48h6.7606Z"/></svg>